<?xml version="1.0" standalone="no"?><!DOCTYPE svg PUBLIC "-//W3C//DTD SVG 1.1//EN" "http://www.w3.org/Graphics/SVG/1.1/DTD/svg11.dtd"><svg t="1679889681549" class="icon" viewBox="0 0 1024 1024" version="1.1" xmlns="http://www.w3.org/2000/svg" p-id="7314" data-darkreader-inline-fill="" xmlns:xlink="http://www.w3.org/1999/xlink" width="200" height="200"><path d="M511.704 47.798l400.172 232.008v463.984L511.704 975.796 111.514 743.79V279.806L511.704 47.798z" fill="#CCCCCC" p-id="7315" data-darkreader-inline-fill="" style="--darkreader-inline-fill:#35393b;"></path><path d="M96.014 271.798L511.704 31.806l415.686 239.992-415.686 240.016L96.014 271.798z" fill="#555555" p-id="7316" data-darkreader-inline-fill="" style="--darkreader-inline-fill:#404548;"></path><path d="M784.672 189.392l15.984 9.226-129.454 74.64 126.906 73.172-15.984 9.226-126.938-73.172L527.67 356l127 73.242-15.968 9.226-127-73.242-127 73.242-16-9.196 127-73.242-129.094-74.46-126.938 73.172-15.984-9.234 126.89-73.172-127.842-73.716 16.016-9.226 127.86 73.71 127.47-73.508-127.908-73.75 16-9.266 127.938 73.782 129.5-74.696 16.032 9.226-129.532 74.704 129.124 74.46 129.438-74.664z m-274.562 9.43l-127.532 73.516 129.156 74.468 127.468-73.516-129.092-74.468zM511.39 511.814v479.834L96.014 751.796V271.962l415.376 239.852z" fill="#363636" p-id="7317" data-darkreader-inline-fill="" style="--darkreader-inline-fill:#292c2e;"></path><path d="M96.014 436.876v-18.43l127.406 73.484v-146.382l16 9.266v146.344l128 73.78v-146.24l15.986 9.234v146.24l127.984 73.782v18.468l-127.984-73.82v139.696l127.984 73.82v18.43l-127.984-73.79v156.968l-15.986-9.226v-156.968l-128-73.79v156.868l-16-9.266v-156.868L96.014 595v-18.43l127.406 73.476v-139.694l-127.406-73.476z m143.406 222.406l128 73.82v-139.696l-128-73.818v139.694zM512 511.814l415.39-239.852v479.834L512 991.648V511.814z" fill="#252525" p-id="7318" data-darkreader-inline-fill="" style="--darkreader-inline-fill:#1c1e1f;"></path><path d="M927.39 576.57v18.46l-127.376 73.446v156.868l-16.032 9.234v-156.836L656 751.532v156.93l-16.016 9.266V760.76L512 834.578v-18.46l127.984-73.82v-139.664L512 676.454v-18.46l127.984-73.82v-146.24l16.016-9.266v146.272l127.984-73.81v-146.352l16.032-9.226v146.344l127.376-73.446v18.468l-127.376 73.438v139.662l127.374-73.448z m-143.406-56.982L656 593.406v139.656l127.984-73.782v-139.692z" p-id="7319"></path><path d="M400 895.804v-103.078l95.406 55.086v103.078L400 895.804z m0-263.062l95.406 55.046v103.078L400 735.812v-103.07z m0-159.99l95.406 55.046v103.076L400 575.79v-103.038z m-143.97 239.982l95.36 55.086v103.04l-95.36-55.054v-103.072z m0-159.99l95.36 55.052v103.07l-95.36-55.046v-103.076z m0-160.024l95.36 55.086v103.07l-95.36-55.078V392.72zM112.014 632.742l95.376 55.046v103.078l-95.376-55.054v-103.07z m0-159.99l95.376 55.046v103.076l-95.376-55.086v-103.036z m0-159.992l95.376 55.054v103.04L112.014 415.8v-103.04z" fill="#3498DB" p-id="7320" data-darkreader-inline-fill="" style="--darkreader-inline-fill:#1d6fa5;"></path><path d="M815.984 790.868v-103.078l95.406-55.046v103.07l-95.406 55.054z m0-263.07l95.406-55.046v103.038l-95.406 55.086v-103.078z m0-159.984l95.406-55.086v103.07l-95.406 55.086v-103.07zM672.016 767.82l95.376-55.086v103.07l-95.376 55.054V767.82z m0-160.024l95.376-55.052v103.076l-95.376 55.046v-103.07z m0-159.99l95.376-55.086v103.078l-95.376 55.078v-103.07z m-144 400.006l95.376-55.086v103.078l-95.376 55.086v-103.078z m0-160.022l95.376-55.046v103.07l-95.376 55.054v-103.078z m0-159.992l95.376-55.046v103.038l-95.376 55.086v-103.078z" fill="#C0392B" p-id="7321" data-darkreader-inline-fill="" style="--darkreader-inline-fill:#9a2e22;"></path><path d="M799.704 319.822l-83.156-48.024 83.156-47.992 83.156 47.992-83.156 48.024zM572.578 191.798l83.124-47.992 83.156 47.992-83.156 47.992-83.124-47.992z m-144-79.992l83.124-47.992 83.14 47.992-83.14 47.992-83.124-47.992z m-60.892 127.986L284.576 191.8l83.11-47.992L450.844 191.8l-83.158 47.992z m-143.968 80.03l-83.156-48.024 83.156-47.992 83.11 47.992-83.11 48.024z m227.126 31.97l-83.158 48.024-83.11-48.024 83.11-47.992 83.158 47.992z m144 80.03l-83.14 47.984-83.156-47.984 83.156-48.024 83.14 48.024z m-166.266-160.024l83.124-47.992 83.14 47.992-83.14 48.024-83.124-48.024z m227.126 32l83.156 47.992-83.156 48.024-83.124-48.024 83.124-47.992z" fill="#ECF0F1" p-id="7322" data-darkreader-inline-fill="" style="--darkreader-inline-fill:#1e2729;"></path></svg>